<svg width="46" height="46" viewBox="0 0 46 46" fill="none" xmlns="http://www.w3.org/2000/svg">
<g id="Logo name">
<path id="Ellipse 173" d="M27.0086 25.1686C38.18 32.7915 31.9535 44.9486 24.0235 44.9486C19.0049 44.9486 35.6829 43.5029 28.1914 33.4486C25.2945 29.5606 22.0143 28.52 15.7435 24.84C3.4972 17.6533 13.4057 1.05145 23.5307 1.05145C31.3026 1.05146 36.6686 4.99431 34.7629 13.7343C34.1065 16.7447 28.6365 15.7958 29.6372 12.4857C30.4915 9.66002 31.74 7.03145 28.1914 5.32288C24.6429 3.61431 19.6486 7.09717 16.9921 12.3543C13.3713 19.5198 20.8741 20.7868 27.0086 25.1686Z" fill="url(#paint0_linear_1_1589)"/>
<rect x="1" y="1" width="44" height="44" rx="22" stroke="url(#paint1_linear_1_1589)" stroke-width="2"/>
</g>
<defs>
<linearGradient id="paint0_linear_1_1589" x1="8.91251" y1="3.7375" x2="37.0875" y2="41.6875" gradientUnits="userSpaceOnUse">
<stop stop-color="#BA72BA"/>
<stop offset="1" stop-color="#626BFE"/>
</linearGradient>
<linearGradient id="paint1_linear_1_1589" x1="28.75" y1="1.4375" x2="31.05" y2="46" gradientUnits="userSpaceOnUse">
<stop stop-color="#AB71C6"/>
<stop offset="0.507276" stop-color="#8A6EE0"/>
<stop offset="1" stop-color="#6A6CF9"/>
</linearGradient>
</defs>
</svg>
